<svg id="Capa_1" enable-background="new 0 0 512 512" height="512" viewBox="0 0 512 512" width="512" xmlns="http://www.w3.org/2000/svg" xmlns:xlink="http://www.w3.org/1999/xlink"><linearGradient id="SVGID_1_" gradientUnits="userSpaceOnUse" x1="256" x2="256" y1="512" y2="0"><stop offset="0" stop-color="#ffc2cc"/><stop offset="1" stop-color="#fff2f4"/></linearGradient><linearGradient id="SVGID_2_" gradientUnits="userSpaceOnUse" x1="256" x2="256" y1="407" y2="105"><stop offset="0" stop-color="#ffa68d"/><stop offset="1" stop-color="#fd3a84"/></linearGradient><g><g><circle cx="256" cy="256" fill="url(#SVGID_1_)" r="256"/></g><g><g><path d="m211.577 113.882c0-4.975-3.909-8.882-8.885-8.882s-8.885 3.908-8.885 8.882v8.882h17.769v-8.882zm53.308 0c0-4.975-3.909-8.882-8.885-8.882s-8.885 3.908-8.885 8.882v8.882h17.769v-8.882zm53.307 0c0-4.975-3.909-8.882-8.885-8.882s-8.885 3.908-8.885 8.882v8.882h17.769v-8.882zm44.423 8.883h-44.423v26.647c0 4.975-3.909 8.882-8.885 8.882s-8.885-3.908-8.885-8.882v-26.647h-35.538v26.647c0 4.975-3.909 8.882-8.885 8.882s-8.885-3.908-8.885-8.882v-26.647h-35.538v26.647c0 4.975-3.909 8.882-8.885 8.882s-8.885-3.908-8.885-8.882v-26.647h-44.423c-4.976 0-8.885 3.908-8.885 8.882v266.471c0 4.975 3.909 8.882 8.885 8.882h213.231c4.976 0 8.885-3.908 8.885-8.882v-266.471c.001-4.975-3.908-8.882-8.884-8.882zm-149.962 210.574c3.471 3.47 3.471 9.091 0 12.56-3.47 3.47-9.093 3.47-12.563 0l-6.282-6.28-6.282 6.28c-3.47 3.47-9.093 3.47-12.563 0-3.471-3.47-3.471-9.091 0-12.56l6.282-6.28-6.282-6.28c-3.471-3.47-3.471-9.091 0-12.56 3.471-3.47 9.093-3.47 12.563 0l6.282 6.28 6.282-6.28c3.471-3.47 9.093-3.47 12.563 0 3.471 3.47 3.471 9.091 0 12.56l-6.282 6.28zm0-62.177c3.471 3.47 3.471 9.091 0 12.56-3.47 3.47-9.093 3.47-12.563 0l-6.282-6.28-6.282 6.28c-3.47 3.47-9.093 3.47-12.563 0-3.471-3.47-3.471-9.091 0-12.56l6.282-6.28-6.282-6.28c-3.471-3.47-3.471-9.091 0-12.56 3.471-3.47 9.093-3.47 12.563 0l6.282 6.28 6.282-6.28c3.471-3.47 9.093-3.47 12.563 0 3.471 3.47 3.471 9.091 0 12.56l-6.282 6.28zm0-62.176c3.471 3.47 3.471 9.091 0 12.56-3.47 3.47-9.093 3.47-12.563 0l-6.282-6.28-6.282 6.28c-3.47 3.47-9.093 3.47-12.563 0-3.471-3.47-3.471-9.091 0-12.56l6.282-6.28-6.282-6.28c-3.471-3.47-3.471-9.091 0-12.56 3.471-3.47 9.093-3.47 12.563 0l6.282 6.28 6.282-6.28c3.471-3.47 9.093-3.47 12.563 0 3.471 3.47 3.471 9.091 0 12.56l-6.282 6.28zm62.192 124.353c3.471 3.47 3.471 9.091 0 12.56-3.47 3.47-9.093 3.47-12.563 0l-6.282-6.28-6.282 6.28c-3.47 3.47-9.093 3.47-12.563 0-3.471-3.47-3.471-9.091 0-12.56l6.282-6.28-6.282-6.28c-3.471-3.47-3.471-9.091 0-12.56 3.471-3.47 9.093-3.47 12.563 0l6.282 6.28 6.282-6.28c3.471-3.47 9.093-3.47 12.563 0 3.471 3.47 3.471 9.091 0 12.56l-6.282 6.28zm0-62.177c3.471 3.47 3.471 9.091 0 12.56-3.47 3.47-9.093 3.47-12.563 0l-6.282-6.28-6.282 6.28c-3.47 3.47-9.093 3.47-12.563 0-3.471-3.47-3.471-9.091 0-12.56l6.282-6.28-6.282-6.28c-3.471-3.47-3.471-9.091 0-12.56 3.471-3.47 9.093-3.47 12.563 0l6.282 6.28 6.282-6.28c3.471-3.47 9.093-3.47 12.563 0 3.471 3.47 3.471 9.091 0 12.56l-6.282 6.28zm0-62.176c3.471 3.47 3.471 9.091 0 12.56-3.47 3.47-9.093 3.47-12.563 0l-6.282-6.28-6.282 6.28c-3.47 3.47-9.093 3.47-12.563 0-3.471-3.47-3.471-9.091 0-12.56l6.282-6.28-6.282-6.28c-3.471-3.47-3.471-9.091 0-12.56 3.471-3.47 9.093-3.47 12.563 0l6.282 6.28 6.282-6.28c3.471-3.47 9.093-3.47 12.563 0 3.471 3.47 3.471 9.091 0 12.56l-6.282 6.28zm62.192 124.353c3.471 3.47 3.471 9.091 0 12.56-3.47 3.47-9.093 3.47-12.563 0l-6.282-6.28-6.282 6.28c-3.47 3.47-9.093 3.47-12.563 0-3.471-3.47-3.471-9.091 0-12.56l6.282-6.28-6.282-6.28c-3.471-3.47-3.471-9.091 0-12.56 3.471-3.47 9.093-3.47 12.563 0l6.282 6.28 6.282-6.28c3.471-3.47 9.093-3.47 12.563 0 3.471 3.47 3.471 9.091 0 12.56l-6.282 6.28zm0-62.177c3.471 3.47 3.471 9.091 0 12.56-3.47 3.47-9.093 3.47-12.563 0l-6.282-6.28-6.282 6.28c-3.47 3.47-9.093 3.47-12.563 0-3.471-3.47-3.471-9.091 0-12.56l6.282-6.28-6.282-6.28c-3.471-3.47-3.471-9.091 0-12.56 3.471-3.47 9.093-3.47 12.563 0l6.282 6.28 6.282-6.28c3.471-3.47 9.093-3.47 12.563 0 3.471 3.47 3.471 9.091 0 12.56l-6.282 6.28zm0-62.176c3.471 3.47 3.471 9.091 0 12.56-3.47 3.47-9.093 3.47-12.563 0l-6.282-6.28-6.282 6.28c-3.47 3.47-9.093 3.47-12.563 0-3.471-3.47-3.471-9.091 0-12.56l6.282-6.28-6.282-6.28c-3.471-3.47-3.471-9.091 0-12.56 3.471-3.47 9.093-3.47 12.563 0l6.282 6.28 6.282-6.28c3.471-3.47 9.093-3.47 12.563 0 3.471 3.47 3.471 9.091 0 12.56l-6.282 6.28z" fill="url(#SVGID_2_)"/></g></g></g></svg>